<svg width="33" height="32" viewBox="0 0 33 32" fill="none" xmlns="http://www.w3.org/2000/svg">
<path d="M14.4488 9.54386V14.3559H9.63676V17.5639H14.4488V22.3759H17.6568V17.5639H22.4688V14.3559H17.6568V9.54386H14.4488ZM17.6568 0V4.86015C23.0944 5.64612 27.2809 10.2977 27.2809 15.9599C27.2809 17.4035 26.9921 18.7669 26.5109 20.0341L30.6814 22.4882C31.5796 20.4992 32.0929 18.2857 32.0929 15.9599C32.0929 7.65113 25.7571 0.802005 17.6568 0ZM16.0528 27.188C9.84528 27.188 4.82473 22.1674 4.82473 15.9599C4.82473 10.2977 9.01119 5.64612 14.4488 4.86015V0C6.3325 0.802005 0.0126953 7.63509 0.0126953 15.9599C0.0126953 24.814 7.18262 32 16.0368 32C21.346 32 26.0458 29.4175 28.9651 25.4396L24.7947 22.9855C22.7415 25.5519 19.5977 27.188 16.0528 27.188Z" fill="#AA7A24"/>
</svg>
