<svg width="23" height="44" viewBox="0 0 23 44" fill="none" xmlns="http://www.w3.org/2000/svg">
<path d="M11.1504 43.4617C10.4815 43.4617 9.92046 43.2327 9.46719 42.7749C9.0155 42.3186 8.78965 41.7527 8.78965 41.077V38.3347C7.01906 37.9373 5.46488 37.2418 4.12711 36.2482C2.78934 35.2546 1.70731 33.8636 0.881041 32.0751C0.605616 31.5187 0.595386 30.9329 0.85035 30.3177C1.10689 29.7008 1.5696 29.2533 2.23849 28.9751C2.78934 28.7367 3.35986 28.747 3.95005 29.0061C4.54025 29.2637 4.99273 29.6905 5.3075 30.2867C5.97639 31.479 6.82233 32.3835 7.84534 33.0003C8.86834 33.6156 10.1274 33.9232 11.6226 33.9232C13.2358 33.9232 14.6035 33.556 15.7256 32.8215C16.8462 32.0854 17.4065 30.9424 17.4065 29.3924C17.4065 28.0014 16.9737 26.8981 16.1081 26.0826C15.2424 25.2686 13.2358 24.345 10.0881 23.3117C6.70429 22.2386 4.38286 20.9572 3.12378 19.4677C1.8647 17.9765 1.23516 16.1578 1.23516 14.0117C1.23516 11.4283 2.06143 9.42127 3.71397 7.9905C5.36652 6.55973 7.05841 5.74498 8.78965 5.54627V2.92319C8.78965 2.24755 9.0155 1.6808 9.46719 1.22296C9.92046 0.766702 10.4815 0.538574 11.1504 0.538574C11.8193 0.538574 12.3804 0.766702 12.8337 1.22296C13.2854 1.6808 13.5112 2.24755 13.5112 2.92319V5.54627C15.0064 5.78473 16.3048 6.27198 17.4065 7.00804C18.5082 7.7425 19.4131 8.64627 20.1214 9.71934C20.4755 10.236 20.5447 10.8123 20.3291 11.4482C20.1119 12.0841 19.6689 12.5411 19 12.8193C18.4492 13.0578 17.8786 13.0673 17.2884 12.848C16.6983 12.6302 16.1474 12.2431 15.6359 11.6867C15.1244 11.1302 14.5248 10.7026 13.837 10.4037C13.1476 10.1064 12.2915 9.9578 11.2685 9.9578C9.53723 9.9578 8.21912 10.3457 7.31416 11.1215C6.40919 11.8957 5.95671 12.8591 5.95671 14.0117C5.95671 15.3232 6.54691 16.3565 7.7273 17.1117C8.90769 17.8668 10.9537 18.6617 13.8653 19.4963C16.5802 20.2911 18.6365 21.5526 20.034 23.2807C21.43 25.0103 22.128 27.0078 22.128 29.2732C22.128 32.095 21.3018 34.2411 19.6492 35.7117C17.9967 37.1822 15.9507 38.0963 13.5112 38.454V41.077C13.5112 41.7527 13.2854 42.3186 12.8337 42.7749C12.3804 43.2327 11.8193 43.4617 11.1504 43.4617Z" fill="#AA7A24"/>
</svg>
