<svg width="12" height="12" viewBox="0 0 12 12" fill="none" xmlns="http://www.w3.org/2000/svg">
<path d="M7.91429 10.5714L6.8 11.6714C6.58095 11.8905 6.31429 12 6 12C5.68571 12 5.41905 11.8905 5.2 11.6714L4.08571 10.5714H2.57143C2.25714 10.5714 1.9881 10.4595 1.76429 10.2357C1.54048 10.0119 1.42857 9.74286 1.42857 9.42857V7.91429L0.328571 6.8C0.109524 6.58095 0 6.31429 0 6C0 5.68571 0.109524 5.41905 0.328571 5.2L1.42857 4.08571V2.57143C1.42857 2.25714 1.54048 1.9881 1.76429 1.76429C1.9881 1.54048 2.25714 1.42857 2.57143 1.42857H4.08571L5.2 0.328571C5.41905 0.109524 5.68571 0 6 0C6.31429 0 6.58095 0.109524 6.8 0.328571L7.91429 1.42857H9.42857C9.74286 1.42857 10.0119 1.54048 10.2357 1.76429C10.4595 1.9881 10.5714 2.25714 10.5714 2.57143V4.08571L11.6714 5.2C11.8905 5.41905 12 5.68571 12 6C12 6.31429 11.8905 6.58095 11.6714 6.8L10.5714 7.91429V9.42857C10.5714 9.74286 10.4595 10.0119 10.2357 10.2357C10.0119 10.4595 9.74286 10.5714 9.42857 10.5714H7.91429ZM6 7.41429L7.1 8.07143C7.20476 8.13809 7.30714 8.13571 7.40714 8.06429C7.50714 7.99286 7.54286 7.89524 7.51429 7.77143L7.22857 6.52857L8.2 5.68571C8.29524 5.6 8.32381 5.49762 8.28571 5.37857C8.24762 5.25952 8.1619 5.19524 8.02857 5.18571L6.75714 5.08571L6.25714 3.9C6.20952 3.78571 6.12381 3.72857 6 3.72857C5.87619 3.72857 5.79048 3.78571 5.74286 3.9L5.24286 5.08571L3.97143 5.18571C3.8381 5.19524 3.75238 5.25952 3.71429 5.37857C3.67619 5.49762 3.70476 5.6 3.8 5.68571L4.77143 6.52857L4.48571 7.77143C4.45714 7.89524 4.49286 7.99286 4.59286 8.06429C4.69286 8.13571 4.79524 8.13809 4.9 8.07143L6 7.41429Z" fill="#666666"/>
</svg>
