<svg width="34" height="34" viewBox="0 0 34 34" fill="none" xmlns="http://www.w3.org/2000/svg">
<path d="M17 0C7.61016 0 0 7.61016 0 17C0 26.1043 7.15859 33.5086 16.15 33.9535V34H17.85V33.9535C26.8414 33.5086 34 26.1043 34 17C34 7.61016 26.3898 0 17 0ZM16.15 1.80625V5.1H12.2719C13.3676 3.33359 14.7023 2.14492 16.15 1.80625ZM17.85 1.80625C19.2977 2.14492 20.6324 3.33359 21.7281 5.1H17.85V1.80625ZM12.0063 2.55C11.3688 3.26719 10.7844 4.12383 10.2664 5.1H7.39766C8.75898 3.99766 10.3195 3.13438 12.0063 2.55ZM21.9871 2.55C23.6805 3.13438 25.241 3.99766 26.609 5.1H23.7336C23.2156 4.12383 22.6246 3.26719 21.9871 2.55ZM5.61797 6.8H9.47617C9.05117 7.84258 8.69258 8.98477 8.40703 10.2H3.30703C3.92461 8.9582 4.70156 7.82266 5.61797 6.8ZM11.3688 6.8H16.15V10.2H10.1934C10.5121 8.96484 10.9039 7.82266 11.3688 6.8ZM17.85 6.8H22.6313C23.0961 7.82266 23.4945 8.96484 23.8066 10.2H17.85V6.8ZM24.5172 6.8H28.3754C29.2918 7.82266 30.0754 8.9582 30.6863 10.2H25.5863C25.3008 8.98477 24.9422 7.84258 24.5172 6.8ZM2.58984 11.9H31.4102C31.9746 13.5004 32.3 15.207 32.3 17C32.3 18.793 31.9746 20.5063 31.4035 22.1H2.58984C2.02539 20.5063 1.7 18.793 1.7 17C1.7 15.207 2.02539 13.5004 2.58984 11.9ZM7.11211 13.6C6.67383 13.6199 6.28867 13.7328 5.92344 13.952C5.32578 14.3039 5.02031 14.8617 5.00703 15.6121C5.00039 16.3492 5.41211 16.7742 5.90351 17.2059C6.00977 17.2988 6.12266 17.3852 6.23555 17.4781C6.48125 17.6707 6.70703 17.8566 6.89297 18.0891C7.15859 18.4344 7.23828 18.866 7.10547 19.2313C6.9793 19.5566 6.70703 19.7824 6.35508 19.8621C5.99648 19.9418 5.59141 19.902 5.32578 19.7691C5.11992 19.6629 4.94727 19.4438 4.78125 19.2313C4.7082 19.1516 4.6418 19.0719 4.56875 18.9922L4.44922 18.8594L4.39609 19.0254C4.26992 19.4438 4.19023 19.7293 4.30976 19.9285C4.42266 20.1145 4.66836 20.2008 5.11328 20.2938C5.44531 20.3668 5.78398 20.4 6.10938 20.4C6.28203 20.4 6.44141 20.3934 6.60078 20.3734C7.47734 20.2738 8.15469 19.6496 8.34062 18.773C8.51328 17.943 8.22773 17.259 7.46406 16.6879C7.37109 16.6148 7.27148 16.5418 7.17188 16.4688C6.93281 16.3027 6.68711 16.1234 6.47461 15.9176C6.24219 15.6984 6.11601 15.4129 6.11601 15.1074C6.11601 14.8152 6.23555 14.543 6.45469 14.3438C6.67383 14.1445 6.96602 14.0582 7.27813 14.1047C7.70312 14.1578 8.09492 14.4367 8.34062 14.8418L8.43359 14.9879L8.54648 14.7953C8.63945 14.6293 8.79883 14.3637 8.7125 14.1246C8.65938 13.9852 8.5332 13.8789 8.34062 13.8125C7.88242 13.6598 7.47734 13.5867 7.11211 13.6ZM24.7563 13.7527C24.1918 13.7594 23.6539 13.7594 23.1293 13.766C22.618 13.7793 22.1266 13.7859 21.6285 13.7859C21.4492 13.7859 21.3031 13.9785 21.2699 14.118C20.7453 16.1168 20.2406 18.1156 19.716 20.1676L19.6828 20.2938H20.1344C20.3535 20.2938 20.5793 20.2938 20.8051 20.2672C20.9645 20.2473 21.1238 20.0746 21.1637 19.9285C21.2434 19.6098 21.343 19.1582 21.4426 18.7199C21.5422 18.3016 21.6352 17.8898 21.7082 17.5844C21.768 17.3719 21.8941 17.2191 22.1066 17.1129C22.598 16.8805 23.375 17.0199 23.541 17.093L23.6605 17.1395L23.7602 16.7078C23.7934 16.5617 23.8266 16.4156 23.8531 16.3027L23.8863 16.1699L23.7469 16.1766C23.541 16.1832 23.3484 16.1965 23.1559 16.2098C22.8969 16.2297 22.6445 16.243 22.3922 16.2496C22.3258 16.2563 22.1664 16.2563 22.1266 16.2098C22.1199 16.1965 22.0934 16.1434 22.1398 15.9906C22.1996 15.7715 22.2461 15.6121 22.2793 15.4594C22.3391 15.2137 22.3855 15.0145 22.5184 14.6625C22.5781 14.4898 22.8371 14.2773 23.0297 14.2375C23.6273 14.1313 24.0922 14.3105 24.4574 14.7953L24.5902 14.9746L24.6434 14.7555C24.6766 14.5961 24.7098 14.4566 24.7496 14.3238C24.7828 14.1777 24.816 14.0383 24.8559 13.8789L24.8891 13.7527H24.7563ZM16.4953 13.7594C16.1633 13.7594 16.0371 14.0184 15.9109 14.3637C15.8512 14.523 14.875 16.6082 14.3637 17.6773C14.3105 17.7969 14.2574 17.8832 14.2176 17.9363C14.118 16.7809 14.0117 15.5855 13.8922 14.4168V14.3438C13.8723 14.1445 13.8457 13.8059 13.5734 13.8059C13.3211 13.8059 13.1617 14.098 13.0953 14.2242C12.7633 14.8684 12.4445 15.5125 12.1258 16.1566C11.8801 16.648 11.6344 17.1328 11.382 17.6176C11.3289 17.7305 11.2227 17.8898 11.1496 17.9695L10.8375 13.8059H9.45625L9.46953 13.9187C9.48945 14.098 9.50938 14.2707 9.53594 14.4301C9.56914 14.709 9.60898 14.9746 9.62891 15.2336L9.7418 16.3824C9.84805 17.4781 9.94766 18.5738 10.0605 19.6629C10.0871 19.902 10.1602 20.2938 10.3992 20.2938C10.7047 20.2938 10.8508 20.0215 10.9504 19.8289C11.2891 19.1848 11.6145 18.5273 11.9266 17.8898C12.1324 17.4781 12.3383 17.073 12.5508 16.6613L12.5641 16.6215C12.6637 16.4223 12.7301 16.3227 12.7633 16.2762C12.7699 16.2961 12.7699 16.3293 12.7766 16.3625C12.8031 16.6945 12.8363 17.0133 12.8629 17.3387C12.9359 18.1223 13.009 18.9324 13.0621 19.7359C13.082 19.9949 13.1551 20.1609 13.2879 20.2473C13.3477 20.2871 13.4141 20.3004 13.4938 20.3004C13.5535 20.3004 13.6266 20.2938 13.7063 20.2672C13.8789 20.2008 13.9785 19.9949 14.0715 19.7957L14.7289 18.4344C15.3199 17.2125 15.9176 15.984 16.502 14.7488L16.6215 14.5098C16.7012 14.3305 16.7875 14.1512 16.8871 13.9586L16.9469 13.8391L16.8207 13.8125C16.7145 13.7793 16.6082 13.7594 16.5086 13.7594H16.4953ZM25.8254 13.7594C25.2012 13.7594 25.1414 13.8656 25.075 14.523L25.0551 14.7223L25.2344 14.616C25.5863 14.4035 26.1973 14.4102 26.5625 14.5563C26.2969 15.5191 26.0645 16.409 25.8254 17.2922C25.573 18.2219 25.3273 19.1449 25.0551 20.141L25.0219 20.2738H26.4629L26.4762 20.1875C26.4961 20.0813 26.5027 19.9816 26.516 19.8754C26.5293 19.7426 26.5426 19.6164 26.5691 19.4969C26.8613 18.3879 27.1867 17.1195 27.4988 15.9176L27.8441 14.5895C28.2359 14.3305 29.2254 14.4699 29.3781 14.5828L29.5109 14.6824L29.75 13.7594H29.2719C28.5082 13.7594 26.7219 13.7527 25.8254 13.7594ZM18.1156 13.7793L18.0957 13.859C17.7902 15.0078 17.4914 16.1434 17.1926 17.2723C16.9402 18.2418 16.6879 19.2047 16.4289 20.1676L16.3957 20.2938H16.5285C16.6348 20.2938 16.7344 20.3004 16.8406 20.3004C16.9602 20.307 17.073 20.3137 17.1859 20.3137C17.3055 20.3137 17.425 20.307 17.5379 20.2938C17.6906 20.2805 17.8766 20.1145 17.9164 19.9551C18.0426 19.457 18.1621 18.9656 18.2816 18.4609C18.3879 18.0094 18.4941 17.5578 18.607 17.1063C18.8461 16.15 19.125 15.1074 19.4438 13.9121L19.477 13.7793H18.1156ZM3.30703 23.8H8.43359C8.72578 25.0086 9.05117 26.1641 9.47617 27.2H5.61797C4.70156 26.1773 3.92461 25.0352 3.30703 23.8ZM10.2266 23.8H16.15V27.2H11.3688C10.9039 26.184 10.5453 25.0219 10.2266 23.8ZM17.85 23.8H23.7734C23.4613 25.0219 23.0961 26.184 22.6313 27.2H17.85V23.8ZM25.5598 23.8H30.6996C30.0754 25.0352 29.2984 26.1773 28.382 27.2H24.5238C24.9422 26.1641 25.2742 25.0086 25.5598 23.8ZM7.39766 28.9H10.2664C10.7844 29.8762 11.3688 30.7328 12.0063 31.45C10.3195 30.8656 8.75898 30.0023 7.39766 28.9ZM12.2719 28.9H16.15V32.1937C14.7023 31.8551 13.3676 30.6664 12.2719 28.9ZM17.85 28.9H21.7281C20.6324 30.6664 19.2977 31.8551 17.85 32.1937V28.9ZM23.7402 28.9H26.609C25.241 30.0023 23.6805 30.8656 21.9937 31.45C22.6313 30.7328 23.2156 29.8762 23.7402 28.9Z" fill="#AA7A24"/>
</svg>
